<?xml version="1.0" encoding="utf-8"?>
<svg width="100%" height="100%" viewBox="0 0 44 24" version="1.1" xmlns="http://www.w3.org/2000/svg" style="fill-rule:evenodd;clip-rule:evenodd;stroke-linejoin:round;stroke-miterlimit:2;">
  <path d="M 44 0 L 44 24 L 0 24 L 0 0 L 44 0 Z M 8 15.5 L 8 17.5 L 10 17.5 L 10 19.5 L 34 19.5 L 34 17.5 L 36 17.5 L 36 15.5 L 38 15.5 L 38 8.5 L 36 8.5 L 36 6.5 L 34 6.5 L 34 4.5 L 28 4.5 L 28 6.5 L 26 6.5 L 26 8.5 L 24 8.5 L 24 15.5 L 26 15.5 L 26 17.5 L 18 17.5 L 18 15.5 L 20 15.5 L 20 8.5 L 18 8.5 L 18 6.5 L 16 6.5 L 16 4.5 L 10 4.5 L 10 6.5 L 8 6.5 L 8 8.5 L 6 8.5 L 6 15.5 L 8 15.5 Z M 27 13.535 L 26 13.535 L 26 10.035 L 27 10.035 L 27 9.035 L 28 9.035 L 28 8.035 L 29 8.035 L 29 7.035 L 33 7.035 L 33 8.035 L 34 8.035 L 34 9.035 L 35 9.035 L 35 10.035 L 36 10.035 L 36 13.535 L 35 13.535 L 35 14.536 L 34 14.536 L 34 15.535 L 33 15.535 L 33 16.535 L 29 16.535 L 29 15.535 L 28 15.535 L 28 14.536 L 27 14.536 L 27 13.535 Z" style="stroke-width: 0.98; fill: rgb(255, 255, 255);"/>
</svg>