<?xml version="1.0" encoding="utf-8"?>
<svg width="100%" height="100%" viewBox="0 0 16 16" version="1.1" xmlns="http://www.w3.org/2000/svg" style="fill-rule:evenodd;clip-rule:evenodd;stroke-linejoin:round;stroke-miterlimit:2;">
  <path d="M 6 0 L 10 0 L 10 4 L 8.667 4 L 8.667 1.333 L 7.333 1.333 L 7.333 4 L 4.667 4 L 4.667 2.667 L 6 2.667 Z M 10 16 L 6 16 L 6 14.667 L 6.001 14.667 L 6.001 12 L 7.334 12 L 7.334 14.667 L 8.667 14.667 L 8.667 12 L 10 12 Z M 0.001 10 L 0.001 6 L 1.334 6 L 1.334 6.001 L 4 6.001 L 4 7.334 L 1.334 7.334 L 1.334 8.667 L 4.001 8.667 L 4.001 10 L 4 10 L 4 11.333 L 2.667 11.333 L 2.667 10 Z M 16.001 6 L 16.001 10 L 14.668 10 L 14.668 6 Z M 14.667 6 L 14.667 7.333 L 12 7.333 L 12 6 L 12.001 6 L 12.001 4.667 L 13.334 4.667 L 13.334 6 Z M 14.667 8.667 L 14.667 10 L 13.334 10 L 13.334 11.333 L 12.001 11.333 L 12.001 10 L 12 10 L 12 8.667 Z M 11.334 4 L 10.001 4 L 10.001 2.667 L 11.334 2.667 Z M 11.334 13.333 L 10.001 13.333 L 10.001 12 L 11.334 12 Z M 4.667 12 L 6 12 L 6 13.333 L 4.667 13.333 Z M 4.667 1.333 L 4.667 2.666 L 2.667 2.666 L 2.667 4.666 L 1.334 4.666 L 1.334 1.333 Z M 11.334 2.666 L 11.334 1.333 L 14.667 1.333 L 14.667 4.666 L 13.334 4.666 L 13.334 2.666 Z M 11.334 14.667 L 11.334 13.334 L 13.334 13.334 L 13.334 11.334 L 14.667 11.334 L 14.667 14.667 Z M 4.667 13.334 L 4.667 14.667 L 1.334 14.667 L 1.334 11.334 L 2.667 11.334 L 2.667 13.334 Z M 2.667 4.667 L 4 4.667 L 4 6 L 2.667 6 Z M 6.667 5.333 L 9.334 5.333 L 9.334 6.666 L 6.667 6.666 Z M 9.334 10.666 L 6.667 10.666 L 6.667 9.334 L 5.334 9.334 L 5.334 6.667 L 6.667 6.667 L 6.667 9.333 L 9.334 9.333 L 9.334 6.667 L 10.667 6.667 L 10.667 9.334 L 9.334 9.334 Z" style="fill: white; stroke-width: 0.667;"/>
</svg>